<svg width="59" height="59" viewBox="0 0 59 59" fill="none" xmlns="http://www.w3.org/2000/svg">
<path d="M29.5 44.25C41.7193 44.25 51.625 34.3443 51.625 22.125C51.625 9.9057 41.7193 0 29.5 0C17.2807 0 7.375 9.9057 7.375 22.125C7.375 34.3443 17.2807 44.25 29.5 44.25Z" fill="#FBBC04"/>
<path d="M29.5 44.25C41.7193 44.25 51.625 34.3443 51.625 22.125C51.625 9.9057 41.7193 0 29.5 0C17.2807 0 7.375 9.9057 7.375 22.125C7.375 34.3443 17.2807 44.25 29.5 44.25Z" fill="url(#paint0_linear_1_915)"/>
<path d="M35.0312 59C44.1957 59 51.625 51.5707 51.625 42.4062C51.625 33.2418 44.1957 25.8125 35.0312 25.8125C25.8668 25.8125 18.4375 33.2418 18.4375 42.4062C18.4375 51.5707 25.8668 59 35.0312 59Z" fill="url(#paint1_linear_1_915)"/>
<path fill-rule="evenodd" clip-rule="evenodd" d="M35.0312 59C35.0312 55.3326 33.5744 51.8153 30.9811 49.222C28.3878 46.6288 24.8706 45.1719 21.2031 45.1719C17.5357 45.1719 14.0184 46.6288 11.4252 49.222C8.83189 51.8153 7.375 55.3326 7.375 59C7.39528 58.9687 35.0386 58.9779 35.0312 59Z" fill="#9D9D9D"/>
<defs>
<linearGradient id="paint0_linear_1_915" x1="7.375" y1="0" x2="37.4026" y2="33.6437" gradientUnits="userSpaceOnUse">
<stop stop-color="#FCD35C"/>
<stop offset="1" stop-color="#FBBC04"/>
</linearGradient>
<linearGradient id="paint1_linear_1_915" x1="25.9024" y1="31.5855" x2="51.625" y2="64.0452" gradientUnits="userSpaceOnUse">
<stop stop-color="#D2D2D2" stop-opacity="0.77"/>
<stop offset="1" stop-color="#A7A7A7"/>
</linearGradient>
</defs>
</svg>
