<svg width="24" height="24" viewBox="0 0 24 24" fill="none" xmlns="http://www.w3.org/2000/svg">
<mask id="mask0_1_912" style="mask-type:alpha" maskUnits="userSpaceOnUse" x="0" y="0" width="24" height="24">
<rect width="24" height="24" fill="#D9D9D9"/>
</mask>
<g mask="url(#mask0_1_912)">
<path d="M19.6 22L13.3 15.7C12.8 16.1 12.225 16.4167 11.575 16.65C10.925 16.8833 10.2333 17 9.5 17C7.68333 17 6.146 16.371 4.888 15.113C3.62933 13.8543 3 12.3167 3 10.5C3 8.68333 3.62933 7.14567 4.888 5.887C6.146 4.629 7.68333 4 9.5 4C11.3167 4 12.8543 4.629 14.113 5.887C15.371 7.14567 16 8.68333 16 10.5C16 11.2333 15.8833 11.925 15.65 12.575C15.4167 13.225 15.1 13.8 14.7 14.3L21 20.6L19.6 22ZM9.5 15C10.75 15 11.8127 14.5627 12.688 13.688C13.5627 12.8127 14 11.75 14 10.5C14 9.25 13.5627 8.18733 12.688 7.312C11.8127 6.43733 10.75 6 9.5 6C8.25 6 7.18733 6.43733 6.312 7.312C5.43733 8.18733 5 9.25 5 10.5C5 11.75 5.43733 12.8127 6.312 13.688C7.18733 14.5627 8.25 15 9.5 15Z" fill="black"/>
</g>
</svg>
